<svg width="170" height="16" viewBox="0 0 170 16" fill="none" xmlns="http://www.w3.org/2000/svg">
<path d="M15.8302 0.419825H0V3.68513H6.01547V15.5802H9.81471V3.68513H15.8302V0.419825Z" fill="#006FF7"/>
<path d="M32.3152 15.5802L28.8326 11.0087C30.513 10.1458 31.6576 8.58309 31.6576 6.39067C31.6576 3.07872 29.2222 0.419825 25.9831 0.419825C24.1079 0.419825 18.2872 0.419825 18.2872 0.419825V15.5802H22.1595V11.8017H24.9359L27.5418 15.5802H32.3152ZM22.1595 4.1516H25.3986C26.6894 4.1516 27.7366 5.15452 27.7366 6.39067C27.7366 7.65015 26.6651 8.46647 25.3743 8.46647H22.1595V4.1516Z" fill="#006FF7"/>
<path d="M46.9454 3.68513V0.419825H35.0362V15.5802H46.9454V12.3382H38.8354V9.63265H45.2406V6.39067H38.8354V3.68513H46.9454Z" fill="#006FF7"/>
<path d="M62.5262 0.419825L57.972 9.00292L53.4909 0.489797V0.419825H49.6673V15.5802H53.4909V7.90671L57.144 15.5802H58.8001L62.5262 7.83673V15.5802H66.3255V0.419825H62.5262Z" fill="#006FF7"/>
<path d="M81.5631 3.68513V0.419825H69.654V15.5802H81.5631V12.3382H73.4532V9.63265H79.8583V6.39067H73.4532V3.68513H81.5631Z" fill="#006FF7"/>
<path d="M96.1361 0.419825V9.86589L88.2454 0.419825H84.4462V15.5802H88.2454V6.50729L96.1361 15.5802H99.9354V0.419825H96.1361Z" fill="#006FF7"/>
<path d="M110.653 0.419825H103.152V15.5802H110.653C115.037 15.5802 118.568 12.1749 118.568 7.97668C118.568 3.80175 115.499 0.419825 110.653 0.419825ZM111.018 11.9417H106.951V4.05831C106.951 4.05831 109.995 4.05831 111.018 4.05831C113.015 4.05831 114.769 5.71429 114.769 7.97668C114.769 10.2391 112.991 11.8717 111.018 11.9417Z" fill="#006FF7"/>
<path d="M128.472 0.0233233C123.845 0.0233233 120.119 3.61516 120.119 8.02332C120.119 12.4315 123.845 16 128.472 16C133.075 16 136.802 12.4315 136.802 8.02332C136.802 3.61516 133.075 0.0233233 128.472 0.0233233ZM128.472 12.5015C125.867 12.5015 123.772 10.4956 123.772 8.02332C123.772 5.55102 125.867 3.52187 128.472 3.52187C131.054 3.52187 133.148 5.55102 133.148 8.02332C133.148 10.4956 131.054 12.5015 128.472 12.5015Z" fill="#006FF7"/>
<path d="M150.709 0.419825V7.86006C150.709 10.2391 148.956 12.2216 146.545 12.2216C144.11 12.2216 142.356 10.2391 142.356 7.86006V0.419825H138.484V7.86006C138.484 12.7347 142.039 15.9767 146.545 15.9767C151.026 15.9767 154.582 12.7347 154.582 7.86006V0.419825H150.709Z" fill="#006FF7"/>
<path d="M163.01 15.9767C166.785 15.9767 170 13.7843 170 11.172C170 7.16035 165.835 6.64723 163.619 6.25073C162.742 6.11079 160.283 6.11079 160.283 4.87464C160.283 3.8484 161.427 3.03207 162.816 3.03207C164.886 3.03207 165.543 3.82507 165.543 4.19825H169.464C169.464 2.1691 167.272 0 162.816 0C159.162 0 156.167 2.19242 156.167 4.87464C156.167 7.74344 159.309 8.53644 161.159 8.8863C162.207 9.09621 165.884 9.23615 165.884 11.172C165.884 12.105 164.52 12.9679 163.01 12.9679C160.21 12.9679 160.039 10.9155 160.039 10.8921H155.923C155.923 12.9446 158.164 15.9767 163.01 15.9767Z" fill="#006FF7"/>
</svg>
